<svg xmlns="http://www.w3.org/2000/svg" viewBox="468 2353.365 17.778 19.135">
  <defs>
    <style>
      .cls-1 {
        fill: #d68a3e;
      }
    </style>
  </defs>
  <g id="Group_78" data-name="Group 78" transform="translate(468 2353.365)">
    <g id="Group_77" data-name="Group 77">
      <path id="Path_85" data-name="Path 85" class="cls-1" d="M13.459,16.284H1.284A1.281,1.281,0,0,1,0,15V1.284A1.281,1.281,0,0,1,1.284,0H13.459a1.281,1.281,0,0,1,1.284,1.284V15A1.286,1.286,0,0,1,13.459,16.284ZM1.284.988a.3.3,0,0,0-.3.3V15a.3.3,0,0,0,.3.3H13.459a.3.3,0,0,0,.3-.3V1.284a.3.3,0,0,0-.3-.3Z"/>
    </g>
    <path id="Path_86" data-name="Path 86" class="cls-1" d="M59.559,43.3h-.7v.988h.7a.3.3,0,0,1,.3.3V58.3a.3.3,0,0,1-.3.3H47.384a.3.3,0,0,1-.3-.3v-.737H46.1V58.3a1.281,1.281,0,0,0,1.284,1.284H59.559A1.281,1.281,0,0,0,60.843,58.3V44.584A1.286,1.286,0,0,0,59.559,43.3Z" transform="translate(-43.065 -40.449)"/>
  </g>
</svg>
