<svg xmlns="http://www.w3.org/2000/svg" viewBox="466 2395.068 21.471 18.844">
  <defs>
    <style>
      .cls-1 {
        fill: #22aaf2;
      }
    </style>
  </defs>
  <g id="Group_76" data-name="Group 76" transform="translate(466 2395.068)">
    <path id="Path_84" data-name="Path 84" class="cls-1" d="M14.227,18.843a.562.562,0,0,1-.438-.2l-3.157-3.687a13.36,13.36,0,0,1-7.4-2.12A6.575,6.575,0,0,1,0,7.474,6.562,6.562,0,0,1,3.226,2.12,13.483,13.483,0,0,1,10.739,0a13.457,13.457,0,0,1,7.505,2.12,6.562,6.562,0,0,1,3.226,5.354c0,2.9-2.381,5.516-6.107,6.752l-.576,4.117a.59.59,0,0,1-.407.476A.5.5,0,0,1,14.227,18.843ZM10.893,13.8a.588.588,0,0,1,.438.2l2.5,2.919.446-3.211a.57.57,0,0,1,.407-.469c3.426-1.029,5.638-3.288,5.638-5.754,0-3.488-4.3-6.322-9.587-6.322S1.152,3.987,1.152,7.474s4.3,6.322,9.587,6.322h.154Z"/>
  </g>
</svg>
