<svg xmlns="http://www.w3.org/2000/svg" viewBox="1149 2219 18.109 21">
  <defs>
    <style>
      .cls-1 {
        fill: #22aaf2;
      }
    </style>
  </defs>
  <g id="Group_31" data-name="Group 31" transform="translate(1100 1934.391)">
    <g id="Group_27" data-name="Group 27" transform="translate(49 284.609)">
      <g id="Group_26" data-name="Group 26" transform="translate(7.394 0)">
        <path id="Path_15" data-name="Path 15" class="cls-1" d="M98.006,17.375a.563.563,0,0,1-.486-.857L107.1.318a.57.57,0,1,1,.979.584L98.5,17.095A.566.566,0,0,1,98.006,17.375Z" transform="translate(-97.44 -0.04)"/>
      </g>
      <path id="Path_16" data-name="Path 16" class="cls-1" d="M15.851,34.546V46.785a.35.35,0,0,1-.341.341H1.48a.35.35,0,0,1-.341-.341V30.98a.35.35,0,0,1,.341-.341H13.916V29.5H1.48A1.482,1.482,0,0,0,0,30.98V46.785a1.477,1.477,0,0,0,1.48,1.48H15.51a1.477,1.477,0,0,0,1.48-1.48V34.546Z" transform="translate(0 -27.265)"/>
    </g>
  </g>
</svg>
