<svg xmlns="http://www.w3.org/2000/svg" viewBox="469 2492.465 17.735 16.057">
  <defs>
    <style>
      .cls-1 {
        fill: #e5bb9d;
      }
    </style>
  </defs>
  <path id="Path_89" data-name="Path 89" class="cls-1" d="M16.337,0H1.4A1.4,1.4,0,0,0,0,1.4v13.26a1.4,1.4,0,0,0,1.4,1.4H16.337a1.4,1.4,0,0,0,1.4-1.4V1.4A1.4,1.4,0,0,0,16.337,0Zm-.861,1.076L8.864,7.293,2.187,1.076Zm.861,13.906H1.4a.331.331,0,0,1-.323-.323V1.513L8.5,8.427a.538.538,0,0,0,.731,0l7.423-6.978V14.666A.314.314,0,0,1,16.337,14.981Z" transform="translate(469 2492.465)"/>
</svg>
